<mxfile host="app.diagrams.net" agent="Mozilla/5.0 (Windows NT 10.0; Win64; x64) AppleWebKit/537.36 (KHTML, like Gecko) Chrome/141.0.0.0 Safari/537.36" version="28.2.8">
  <diagram name="Trang-1" id="Ylajh9Y1wlX3vUpMpJ7Y">
    <mxGraphModel dx="1281" dy="561" grid="1" gridSize="10" guides="1" tooltips="1" connect="1" arrows="1" fold="1" page="1" pageScale="1" pageWidth="827" pageHeight="1169" math="0" shadow="0">
      <root>
        <mxCell id="0" />
        <mxCell id="1" parent="0" />
        <mxCell id="T8dmncnMLILvOJTpyA9O-2" value="Tác nhân" style="shape=umlActor;verticalLabelPosition=bottom;verticalAlign=top;html=1;" parent="1" vertex="1">
          <mxGeometry x="155" y="110" width="30" height="60" as="geometry" />
        </mxCell>
        <mxCell id="T8dmncnMLILvOJTpyA9O-3" value="" style="shape=umlLifeline;perimeter=lifelinePerimeter;whiteSpace=wrap;html=1;container=1;dropTarget=0;collapsible=0;recursiveResize=0;outlineConnect=0;portConstraint=eastwest;newEdgeStyle={&quot;curved&quot;:0,&quot;rounded&quot;:0};participant=umlActor;" parent="1" vertex="1">
          <mxGeometry x="160" y="260" width="20" height="300" as="geometry" />
        </mxCell>
        <mxCell id="T8dmncnMLILvOJTpyA9O-4" value=":Object" style="shape=umlLifeline;perimeter=lifelinePerimeter;whiteSpace=wrap;html=1;container=1;dropTarget=0;collapsible=0;recursiveResize=0;outlineConnect=0;portConstraint=eastwest;newEdgeStyle={&quot;curved&quot;:0,&quot;rounded&quot;:0};" parent="1" vertex="1">
          <mxGeometry x="230" y="260" width="100" height="300" as="geometry" />
        </mxCell>
        <mxCell id="T8dmncnMLILvOJTpyA9O-5" value="" style="shape=umlLifeline;perimeter=lifelinePerimeter;whiteSpace=wrap;html=1;container=1;dropTarget=0;collapsible=0;recursiveResize=0;outlineConnect=0;portConstraint=eastwest;newEdgeStyle={&quot;curved&quot;:0,&quot;rounded&quot;:0};participant=umlActor;" parent="1" vertex="1">
          <mxGeometry x="380" y="260" width="20" height="300" as="geometry" />
        </mxCell>
        <mxCell id="-H0HxsRHarEW9t2LYZB_-1" value="" style="html=1;points=[[0,0,0,0,5],[0,1,0,0,-5],[1,0,0,0,5],[1,1,0,0,-5]];perimeter=orthogonalPerimeter;outlineConnect=0;targetShapes=umlLifeline;portConstraint=eastwest;newEdgeStyle={&quot;curved&quot;:0,&quot;rounded&quot;:0};" vertex="1" parent="T8dmncnMLILvOJTpyA9O-5">
          <mxGeometry x="5" y="100" width="10" height="80" as="geometry" />
        </mxCell>
        <mxCell id="T8dmncnMLILvOJTpyA9O-7" value="" style="endArrow=classic;html=1;rounded=0;" parent="1" edge="1">
          <mxGeometry width="50" height="50" relative="1" as="geometry">
            <mxPoint x="470" y="280" as="sourcePoint" />
            <mxPoint x="470" y="560" as="targetPoint" />
          </mxGeometry>
        </mxCell>
        <mxCell id="T8dmncnMLILvOJTpyA9O-10" value="" style="html=1;verticalAlign=bottom;labelBackgroundColor=none;endArrow=open;endFill=0;dashed=1;rounded=0;" parent="1" edge="1">
          <mxGeometry width="160" relative="1" as="geometry">
            <mxPoint x="560" y="280" as="sourcePoint" />
            <mxPoint x="560" y="560" as="targetPoint" />
          </mxGeometry>
        </mxCell>
        <mxCell id="T8dmncnMLILvOJTpyA9O-11" value="frame" style="shape=umlFrame;whiteSpace=wrap;html=1;pointerEvents=0;" parent="1" vertex="1">
          <mxGeometry x="630" y="280" width="300" height="200" as="geometry" />
        </mxCell>
        <mxCell id="T8dmncnMLILvOJTpyA9O-12" value="" style="endArrow=classic;html=1;rounded=0;" parent="1" edge="1">
          <mxGeometry width="50" height="50" relative="1" as="geometry">
            <mxPoint x="160" y="660" as="sourcePoint" />
            <mxPoint x="160" y="790" as="targetPoint" />
          </mxGeometry>
        </mxCell>
        <mxCell id="T8dmncnMLILvOJTpyA9O-13" value="" style="endArrow=open;html=1;rounded=0;endFill=0;" parent="1" edge="1">
          <mxGeometry width="50" height="50" relative="1" as="geometry">
            <mxPoint x="240" y="660" as="sourcePoint" />
            <mxPoint x="240" y="790" as="targetPoint" />
          </mxGeometry>
        </mxCell>
        <mxCell id="T8dmncnMLILvOJTpyA9O-14" value="Lifeline2" style="shape=umlLifeline;perimeter=lifelinePerimeter;whiteSpace=wrap;html=1;container=1;dropTarget=0;collapsible=0;recursiveResize=0;outlineConnect=0;portConstraint=eastwest;newEdgeStyle={&quot;edgeStyle&quot;:&quot;elbowEdgeStyle&quot;,&quot;elbow&quot;:&quot;vertical&quot;,&quot;curved&quot;:0,&quot;rounded&quot;:0};" parent="1" vertex="1">
          <mxGeometry x="423" y="660" width="100" height="300" as="geometry" />
        </mxCell>
        <mxCell id="T8dmncnMLILvOJTpyA9O-15" value="" style="html=1;points=[[0,0,0,0,5],[0,1,0,0,-5],[1,0,0,0,5],[1,1,0,0,-5]];perimeter=orthogonalPerimeter;outlineConnect=0;targetShapes=umlLifeline;portConstraint=eastwest;newEdgeStyle={&quot;curved&quot;:0,&quot;rounded&quot;:0};fillColor=#808080;" parent="T8dmncnMLILvOJTpyA9O-14" vertex="1">
          <mxGeometry x="45" y="90" width="10" height="120" as="geometry" />
        </mxCell>
        <mxCell id="T8dmncnMLILvOJTpyA9O-16" value="Lifeline1" style="shape=umlLifeline;perimeter=lifelinePerimeter;whiteSpace=wrap;html=1;container=1;dropTarget=0;collapsible=0;recursiveResize=0;outlineConnect=0;portConstraint=eastwest;newEdgeStyle={&quot;edgeStyle&quot;:&quot;elbowEdgeStyle&quot;,&quot;elbow&quot;:&quot;vertical&quot;,&quot;curved&quot;:0,&quot;rounded&quot;:0};" parent="1" vertex="1">
          <mxGeometry x="303" y="660" width="100" height="300" as="geometry" />
        </mxCell>
        <mxCell id="T8dmncnMLILvOJTpyA9O-17" value="" style="html=1;points=[[0,0,0,0,5],[0,1,0,0,-5],[1,0,0,0,5],[1,1,0,0,-5]];perimeter=orthogonalPerimeter;outlineConnect=0;targetShapes=umlLifeline;portConstraint=eastwest;newEdgeStyle={&quot;curved&quot;:0,&quot;rounded&quot;:0};" parent="T8dmncnMLILvOJTpyA9O-16" vertex="1">
          <mxGeometry x="45" y="90" width="10" height="120" as="geometry" />
        </mxCell>
        <mxCell id="T8dmncnMLILvOJTpyA9O-18" value="" style="html=1;points=[[0,0,0,0,5],[0,1,0,0,-5],[1,0,0,0,5],[1,1,0,0,-5]];perimeter=orthogonalPerimeter;outlineConnect=0;targetShapes=umlLifeline;portConstraint=eastwest;newEdgeStyle={&quot;curved&quot;:0,&quot;rounded&quot;:0};" parent="1" vertex="1">
          <mxGeometry x="595" y="690" width="10" height="40" as="geometry" />
        </mxCell>
        <mxCell id="T8dmncnMLILvOJTpyA9O-19" value="self call" style="html=1;align=left;spacingLeft=2;endArrow=block;rounded=0;edgeStyle=orthogonalEdgeStyle;curved=0;rounded=0;" parent="1" target="T8dmncnMLILvOJTpyA9O-18" edge="1">
          <mxGeometry relative="1" as="geometry">
            <mxPoint x="600" y="670" as="sourcePoint" />
            <Array as="points">
              <mxPoint x="630" y="700" />
            </Array>
          </mxGeometry>
        </mxCell>
        <mxCell id="T8dmncnMLILvOJTpyA9O-20" value=":Object" style="shape=umlLifeline;perimeter=lifelinePerimeter;whiteSpace=wrap;html=1;container=1;dropTarget=0;collapsible=0;recursiveResize=0;outlineConnect=0;portConstraint=eastwest;newEdgeStyle={&quot;curved&quot;:0,&quot;rounded&quot;:0};" parent="1" vertex="1">
          <mxGeometry x="780" y="660" width="100" height="300" as="geometry" />
        </mxCell>
        <mxCell id="T8dmncnMLILvOJTpyA9O-21" value="" style="html=1;verticalAlign=bottom;labelBackgroundColor=none;endArrow=open;endFill=0;dashed=1;rounded=0;" parent="1" edge="1">
          <mxGeometry width="160" relative="1" as="geometry">
            <mxPoint x="700" y="680" as="sourcePoint" />
            <mxPoint x="780" y="680" as="targetPoint" />
          </mxGeometry>
        </mxCell>
        <mxCell id="T8dmncnMLILvOJTpyA9O-22" value="" style="endArrow=none;dashed=1;html=1;rounded=0;" parent="1" edge="1">
          <mxGeometry width="50" height="50" relative="1" as="geometry">
            <mxPoint x="700" y="730" as="sourcePoint" />
            <mxPoint x="700" y="630" as="targetPoint" />
          </mxGeometry>
        </mxCell>
        <mxCell id="T8dmncnMLILvOJTpyA9O-23" value="" style="shape=umlDestroy;whiteSpace=wrap;html=1;strokeWidth=3;targetShapes=umlLifeline;" parent="1" vertex="1">
          <mxGeometry x="1005" y="670" width="30" height="30" as="geometry" />
        </mxCell>
        <mxCell id="T8dmncnMLILvOJTpyA9O-24" value="" style="endArrow=classic;html=1;rounded=0;entryX=0.419;entryY=0.509;entryDx=0;entryDy=0;entryPerimeter=0;strokeWidth=1;endSize=10;" parent="1" target="T8dmncnMLILvOJTpyA9O-23" edge="1">
          <mxGeometry width="50" height="50" relative="1" as="geometry">
            <mxPoint x="940" y="685" as="sourcePoint" />
            <mxPoint x="740" y="630" as="targetPoint" />
          </mxGeometry>
        </mxCell>
        <mxCell id="T8dmncnMLILvOJTpyA9O-26" value="" style="endArrow=none;dashed=1;html=1;rounded=0;" parent="1" edge="1">
          <mxGeometry width="50" height="50" relative="1" as="geometry">
            <mxPoint x="1020" y="710" as="sourcePoint" />
            <mxPoint x="1020" y="660" as="targetPoint" />
          </mxGeometry>
        </mxCell>
        <mxCell id="T8dmncnMLILvOJTpyA9O-27" value="State" style="html=1;align=center;verticalAlign=top;rounded=1;absoluteArcSize=1;arcSize=10;dashed=0;whiteSpace=wrap;" parent="1" vertex="1">
          <mxGeometry x="80" y="1040" width="140" height="40" as="geometry" />
        </mxCell>
        <mxCell id="T8dmncnMLILvOJTpyA9O-28" value="" style="ellipse;fillColor=strokeColor;html=1;" parent="1" vertex="1">
          <mxGeometry x="290" y="1040" width="30" height="30" as="geometry" />
        </mxCell>
        <mxCell id="T8dmncnMLILvOJTpyA9O-29" value="" style="ellipse;html=1;shape=endState;fillColor=strokeColor;" parent="1" vertex="1">
          <mxGeometry x="384" y="1040" width="30" height="30" as="geometry" />
        </mxCell>
        <mxCell id="T8dmncnMLILvOJTpyA9O-30" value="" style="endArrow=classic;html=1;rounded=0;" parent="1" edge="1">
          <mxGeometry width="50" height="50" relative="1" as="geometry">
            <mxPoint x="480" y="1040" as="sourcePoint" />
            <mxPoint x="560" y="1040" as="targetPoint" />
          </mxGeometry>
        </mxCell>
        <mxCell id="T8dmncnMLILvOJTpyA9O-31" value="State 1" style="html=1;align=center;verticalAlign=top;rounded=1;absoluteArcSize=1;arcSize=10;dashed=0;whiteSpace=wrap;" parent="1" vertex="1">
          <mxGeometry x="620" y="1000" width="140" height="40" as="geometry" />
        </mxCell>
        <mxCell id="T8dmncnMLILvOJTpyA9O-32" value="State 2" style="html=1;align=center;verticalAlign=top;rounded=1;absoluteArcSize=1;arcSize=10;dashed=0;whiteSpace=wrap;" parent="1" vertex="1">
          <mxGeometry x="620" y="1100" width="140" height="40" as="geometry" />
        </mxCell>
        <mxCell id="T8dmncnMLILvOJTpyA9O-33" value="" style="endArrow=classic;html=1;rounded=0;exitX=0.5;exitY=1;exitDx=0;exitDy=0;entryX=0.5;entryY=0;entryDx=0;entryDy=0;" parent="1" source="T8dmncnMLILvOJTpyA9O-31" target="T8dmncnMLILvOJTpyA9O-32" edge="1">
          <mxGeometry width="50" height="50" relative="1" as="geometry">
            <mxPoint x="500" y="1040" as="sourcePoint" />
            <mxPoint x="580" y="1040" as="targetPoint" />
          </mxGeometry>
        </mxCell>
        <mxCell id="T8dmncnMLILvOJTpyA9O-35" value="Event" style="text;html=1;whiteSpace=wrap;strokeColor=none;fillColor=none;align=center;verticalAlign=middle;rounded=0;" parent="1" vertex="1">
          <mxGeometry x="680" y="1050" width="60" height="30" as="geometry" />
        </mxCell>
        <mxCell id="T8dmncnMLILvOJTpyA9O-36" value="State 1" style="html=1;align=center;verticalAlign=top;rounded=1;absoluteArcSize=1;arcSize=10;dashed=0;whiteSpace=wrap;" parent="1" vertex="1">
          <mxGeometry x="865" y="1000" width="140" height="40" as="geometry" />
        </mxCell>
        <mxCell id="T8dmncnMLILvOJTpyA9O-37" value="State 2" style="html=1;align=center;verticalAlign=top;rounded=1;absoluteArcSize=1;arcSize=10;dashed=0;whiteSpace=wrap;" parent="1" vertex="1">
          <mxGeometry x="865" y="1100" width="140" height="40" as="geometry" />
        </mxCell>
        <mxCell id="T8dmncnMLILvOJTpyA9O-38" value="" style="endArrow=classic;html=1;rounded=0;exitX=0.5;exitY=1;exitDx=0;exitDy=0;entryX=0.5;entryY=0;entryDx=0;entryDy=0;" parent="1" source="T8dmncnMLILvOJTpyA9O-36" target="T8dmncnMLILvOJTpyA9O-37" edge="1">
          <mxGeometry width="50" height="50" relative="1" as="geometry">
            <mxPoint x="745" y="1040" as="sourcePoint" />
            <mxPoint x="825" y="1040" as="targetPoint" />
          </mxGeometry>
        </mxCell>
        <mxCell id="T8dmncnMLILvOJTpyA9O-39" value="Event [Guard]" style="text;html=1;whiteSpace=wrap;strokeColor=none;fillColor=none;align=center;verticalAlign=middle;rounded=0;" parent="1" vertex="1">
          <mxGeometry x="940" y="1050" width="85" height="30" as="geometry" />
        </mxCell>
        <mxCell id="T8dmncnMLILvOJTpyA9O-40" value="" style="endArrow=classic;html=1;rounded=0;exitX=1;exitY=0.5;exitDx=0;exitDy=0;" parent="1" source="T8dmncnMLILvOJTpyA9O-36" target="T8dmncnMLILvOJTpyA9O-43" edge="1">
          <mxGeometry width="50" height="50" relative="1" as="geometry">
            <mxPoint x="950" y="1090" as="sourcePoint" />
            <mxPoint x="1080" y="1020" as="targetPoint" />
            <Array as="points">
              <mxPoint x="1130" y="1020" />
            </Array>
          </mxGeometry>
        </mxCell>
        <mxCell id="T8dmncnMLILvOJTpyA9O-43" value="State 3" style="html=1;align=center;verticalAlign=top;rounded=1;absoluteArcSize=1;arcSize=10;dashed=0;whiteSpace=wrap;" parent="1" vertex="1">
          <mxGeometry x="1060" y="1100" width="140" height="40" as="geometry" />
        </mxCell>
        <mxCell id="T8dmncnMLILvOJTpyA9O-44" value="State 1" style="html=1;align=center;verticalAlign=top;rounded=1;absoluteArcSize=1;arcSize=10;dashed=0;whiteSpace=wrap;" parent="1" vertex="1">
          <mxGeometry x="80" y="1200" width="140" height="40" as="geometry" />
        </mxCell>
        <mxCell id="T8dmncnMLILvOJTpyA9O-45" value="State 2" style="html=1;align=center;verticalAlign=top;rounded=1;absoluteArcSize=1;arcSize=10;dashed=0;whiteSpace=wrap;" parent="1" vertex="1">
          <mxGeometry x="80" y="1300" width="140" height="40" as="geometry" />
        </mxCell>
        <mxCell id="T8dmncnMLILvOJTpyA9O-46" value="" style="endArrow=classic;html=1;rounded=0;exitX=0.5;exitY=1;exitDx=0;exitDy=0;entryX=0.5;entryY=0;entryDx=0;entryDy=0;" parent="1" source="T8dmncnMLILvOJTpyA9O-44" target="T8dmncnMLILvOJTpyA9O-45" edge="1">
          <mxGeometry width="50" height="50" relative="1" as="geometry">
            <mxPoint x="-40" y="1240" as="sourcePoint" />
            <mxPoint x="40" y="1240" as="targetPoint" />
          </mxGeometry>
        </mxCell>
        <mxCell id="T8dmncnMLILvOJTpyA9O-47" value="Event / Action" style="text;html=1;whiteSpace=wrap;strokeColor=none;fillColor=none;align=center;verticalAlign=middle;rounded=0;" parent="1" vertex="1">
          <mxGeometry x="140" y="1250" width="110" height="30" as="geometry" />
        </mxCell>
        <mxCell id="-H0HxsRHarEW9t2LYZB_-2" value="" style="html=1;points=[[0,0,0,0,5],[0,1,0,0,-5],[1,0,0,0,5],[1,1,0,0,-5]];perimeter=orthogonalPerimeter;outlineConnect=0;targetShapes=umlLifeline;portConstraint=eastwest;newEdgeStyle={&quot;curved&quot;:0,&quot;rounded&quot;:0};" vertex="1" parent="1">
          <mxGeometry x="1110" y="640" width="10" height="80" as="geometry" />
        </mxCell>
      </root>
    </mxGraphModel>
  </diagram>
</mxfile>
